<mxfile host="www.draw.io" modified="2019-12-23T07:10:05.305Z" agent="Mozilla/5.0 (X11; Linux x86_64) AppleWebKit/537.36 (KHTML, like Gecko) Chrome/79.0.3945.88 Safari/537.36" etag="tzmIsd6ReE5kUONHuj9D" version="12.4.3" type="github" pages="1">
  <diagram id="EL3VpSMv7u9wMe-lOuKh" name="Page-1">
    <mxGraphModel dx="1202" dy="1274" grid="1" gridSize="10" guides="1" tooltips="1" connect="1" arrows="1" fold="1" page="1" pageScale="1" pageWidth="827" pageHeight="1169" math="0" shadow="0">
      <root>
        <mxCell id="0"/>
        <mxCell id="1" parent="0"/>
        <mxCell id="x2icAH5Dcb5-Hj5fyPRV-1" value="&lt;font style=&quot;font-size: 30px&quot;&gt;Medical Chart&lt;/font&gt;" style="text;html=1;align=center;verticalAlign=middle;resizable=0;points=[];;autosize=1;" parent="1" vertex="1">
          <mxGeometry x="60" y="50" width="200" height="30" as="geometry"/>
        </mxCell>
        <mxCell id="x2icAH5Dcb5-Hj5fyPRV-2" value="&lt;font style=&quot;font-size: 30px&quot;&gt;Multi Label Vector&lt;/font&gt;" style="text;html=1;align=center;verticalAlign=middle;resizable=0;points=[];;autosize=1;" parent="1" vertex="1">
          <mxGeometry x="345" y="50" width="250" height="30" as="geometry"/>
        </mxCell>
        <mxCell id="x2icAH5Dcb5-Hj5fyPRV-10" value="" style="endArrow=classic;html=1;strokeWidth=3;" parent="1" edge="1">
          <mxGeometry width="50" height="50" relative="1" as="geometry">
            <mxPoint x="250" y="219.5" as="sourcePoint"/>
            <mxPoint x="330" y="219.5" as="targetPoint"/>
          </mxGeometry>
        </mxCell>
        <mxCell id="x2icAH5Dcb5-Hj5fyPRV-11" value="&lt;font style=&quot;font-size: 20px&quot;&gt;one or more lesions&lt;/font&gt;" style="text;html=1;align=center;verticalAlign=middle;resizable=0;points=[];;autosize=1;strokeColor=#000000;" parent="1" vertex="1">
          <mxGeometry x="497.5" y="480" width="190" height="30" as="geometry"/>
        </mxCell>
        <mxCell id="x2icAH5Dcb5-Hj5fyPRV-12" value="&lt;font style=&quot;font-size: 20px&quot;&gt;1&lt;/font&gt;" style="rounded=0;whiteSpace=wrap;html=1;" parent="1" vertex="1">
          <mxGeometry x="580.5" y="390" width="32" height="60" as="geometry"/>
        </mxCell>
        <mxCell id="x2icAH5Dcb5-Hj5fyPRV-13" value="&lt;font style=&quot;font-size: 20px&quot;&gt;1&lt;/font&gt;" style="rounded=0;whiteSpace=wrap;html=1;" parent="1" vertex="1">
          <mxGeometry x="612.5" y="390" width="32" height="60" as="geometry"/>
        </mxCell>
        <mxCell id="x2icAH5Dcb5-Hj5fyPRV-14" value="&lt;font style=&quot;font-size: 20px&quot;&gt;0&lt;/font&gt;" style="rounded=0;whiteSpace=wrap;html=1;" parent="1" vertex="1">
          <mxGeometry x="644.5" y="390" width="32" height="60" as="geometry"/>
        </mxCell>
        <mxCell id="x2icAH5Dcb5-Hj5fyPRV-15" value="&lt;font style=&quot;font-size: 20px&quot;&gt;0&lt;/font&gt;" style="rounded=0;whiteSpace=wrap;html=1;" parent="1" vertex="1">
          <mxGeometry x="676.5" y="390" width="32" height="60" as="geometry"/>
        </mxCell>
        <mxCell id="x2icAH5Dcb5-Hj5fyPRV-16" value="&lt;font style=&quot;font-size: 20px&quot;&gt;1&lt;/font&gt;" style="rounded=0;whiteSpace=wrap;html=1;" parent="1" vertex="1">
          <mxGeometry x="708.5" y="390" width="32" height="60" as="geometry"/>
        </mxCell>
        <mxCell id="x2icAH5Dcb5-Hj5fyPRV-17" value="&lt;font style=&quot;font-size: 20px&quot;&gt;1&lt;/font&gt;" style="rounded=0;whiteSpace=wrap;html=1;" parent="1" vertex="1">
          <mxGeometry x="740.5" y="390" width="32" height="60" as="geometry"/>
        </mxCell>
        <mxCell id="x2icAH5Dcb5-Hj5fyPRV-18" value="&lt;font style=&quot;font-size: 20px&quot;&gt;0&lt;/font&gt;" style="rounded=0;whiteSpace=wrap;html=1;" parent="1" vertex="1">
          <mxGeometry x="772.5" y="390" width="32" height="60" as="geometry"/>
        </mxCell>
        <mxCell id="x2icAH5Dcb5-Hj5fyPRV-19" value="" style="endArrow=classic;html=1;strokeWidth=1;exitX=0.484;exitY=-0.15;exitDx=0;exitDy=0;exitPerimeter=0;entryX=0.5;entryY=1;entryDx=0;entryDy=0;" parent="1" source="x2icAH5Dcb5-Hj5fyPRV-11" target="x2icAH5Dcb5-Hj5fyPRV-12" edge="1">
          <mxGeometry width="50" height="50" relative="1" as="geometry">
            <mxPoint x="232.5" y="590" as="sourcePoint"/>
            <mxPoint x="282.5" y="540" as="targetPoint"/>
          </mxGeometry>
        </mxCell>
        <mxCell id="x2icAH5Dcb5-Hj5fyPRV-20" value="&lt;font style=&quot;font-size: 20px&quot;&gt;A&lt;/font&gt;" style="text;html=1;align=center;verticalAlign=middle;resizable=0;points=[];;autosize=1;strokeColor=#000000;" parent="1" vertex="1">
          <mxGeometry x="616" y="330" width="25" height="30" as="geometry"/>
        </mxCell>
        <mxCell id="x2icAH5Dcb5-Hj5fyPRV-21" value="" style="endArrow=classic;html=1;strokeWidth=1;" parent="1" edge="1">
          <mxGeometry width="50" height="50" relative="1" as="geometry">
            <mxPoint x="628.5" y="360" as="sourcePoint"/>
            <mxPoint x="628.5" y="390" as="targetPoint"/>
          </mxGeometry>
        </mxCell>
        <mxCell id="x2icAH5Dcb5-Hj5fyPRV-22" value="&lt;font style=&quot;font-size: 20px&quot;&gt;B&lt;/font&gt;" style="text;html=1;align=center;verticalAlign=middle;resizable=0;points=[];;autosize=1;strokeColor=#000000;" parent="1" vertex="1">
          <mxGeometry x="646" y="330" width="25" height="30" as="geometry"/>
        </mxCell>
        <mxCell id="x2icAH5Dcb5-Hj5fyPRV-23" value="" style="endArrow=classic;html=1;strokeWidth=1;" parent="1" edge="1">
          <mxGeometry width="50" height="50" relative="1" as="geometry">
            <mxPoint x="660.5" y="360" as="sourcePoint"/>
            <mxPoint x="660.5" y="390" as="targetPoint"/>
          </mxGeometry>
        </mxCell>
        <mxCell id="x2icAH5Dcb5-Hj5fyPRV-24" value="&lt;font style=&quot;font-size: 20px&quot;&gt;C&lt;/font&gt;" style="text;html=1;align=center;verticalAlign=middle;resizable=0;points=[];;autosize=1;strokeColor=#000000;" parent="1" vertex="1">
          <mxGeometry x="678" y="330" width="25" height="30" as="geometry"/>
        </mxCell>
        <mxCell id="x2icAH5Dcb5-Hj5fyPRV-25" value="" style="endArrow=classic;html=1;strokeWidth=1;" parent="1" edge="1">
          <mxGeometry width="50" height="50" relative="1" as="geometry">
            <mxPoint x="692.5" y="360" as="sourcePoint"/>
            <mxPoint x="692.5" y="390" as="targetPoint"/>
          </mxGeometry>
        </mxCell>
        <mxCell id="x2icAH5Dcb5-Hj5fyPRV-26" value="&lt;font style=&quot;font-size: 20px&quot;&gt;D&lt;/font&gt;" style="text;html=1;align=center;verticalAlign=middle;resizable=0;points=[];;autosize=1;strokeColor=#000000;" parent="1" vertex="1">
          <mxGeometry x="710" y="330" width="25" height="30" as="geometry"/>
        </mxCell>
        <mxCell id="x2icAH5Dcb5-Hj5fyPRV-27" value="" style="endArrow=classic;html=1;strokeWidth=1;" parent="1" edge="1">
          <mxGeometry width="50" height="50" relative="1" as="geometry">
            <mxPoint x="724.5" y="360" as="sourcePoint"/>
            <mxPoint x="724.5" y="390" as="targetPoint"/>
          </mxGeometry>
        </mxCell>
        <mxCell id="x2icAH5Dcb5-Hj5fyPRV-28" value="&lt;font style=&quot;font-size: 20px&quot;&gt;E&lt;/font&gt;" style="text;html=1;align=center;verticalAlign=middle;resizable=0;points=[];;autosize=1;strokeColor=#000000;" parent="1" vertex="1">
          <mxGeometry x="742" y="330" width="25" height="30" as="geometry"/>
        </mxCell>
        <mxCell id="x2icAH5Dcb5-Hj5fyPRV-29" value="" style="endArrow=classic;html=1;strokeWidth=1;" parent="1" edge="1">
          <mxGeometry width="50" height="50" relative="1" as="geometry">
            <mxPoint x="756.5" y="360" as="sourcePoint"/>
            <mxPoint x="756.5" y="390" as="targetPoint"/>
          </mxGeometry>
        </mxCell>
        <mxCell id="x2icAH5Dcb5-Hj5fyPRV-30" value="&lt;font style=&quot;font-size: 20px&quot;&gt;F&lt;/font&gt;" style="text;html=1;align=center;verticalAlign=middle;resizable=0;points=[];;autosize=1;strokeColor=#000000;" parent="1" vertex="1">
          <mxGeometry x="774" y="330" width="25" height="30" as="geometry"/>
        </mxCell>
        <mxCell id="x2icAH5Dcb5-Hj5fyPRV-31" value="" style="endArrow=classic;html=1;strokeWidth=1;" parent="1" edge="1">
          <mxGeometry width="50" height="50" relative="1" as="geometry">
            <mxPoint x="788.5" y="360" as="sourcePoint"/>
            <mxPoint x="788.5" y="390" as="targetPoint"/>
          </mxGeometry>
        </mxCell>
        <mxCell id="x2icAH5Dcb5-Hj5fyPRV-32" value="&lt;font style=&quot;font-size: 25px&quot;&gt;OR&lt;/font&gt;" style="text;html=1;align=center;verticalAlign=middle;resizable=0;points=[];;autosize=1;" parent="1" vertex="1">
          <mxGeometry x="505" y="510" width="50" height="20" as="geometry"/>
        </mxCell>
        <mxCell id="x2icAH5Dcb5-Hj5fyPRV-36" value="" style="endArrow=classic;html=1;strokeWidth=3;" parent="1" edge="1">
          <mxGeometry width="50" height="50" relative="1" as="geometry">
            <mxPoint x="250" y="470" as="sourcePoint"/>
            <mxPoint x="330" y="470" as="targetPoint"/>
          </mxGeometry>
        </mxCell>
        <mxCell id="x2icAH5Dcb5-Hj5fyPRV-37" value="&lt;font style=&quot;font-size: 20px&quot;&gt;one or more lesions&lt;/font&gt;" style="text;html=1;align=center;verticalAlign=middle;resizable=0;points=[];;autosize=1;strokeColor=#000000;" parent="1" vertex="1">
          <mxGeometry x="490" y="700" width="190" height="30" as="geometry"/>
        </mxCell>
        <mxCell id="x2icAH5Dcb5-Hj5fyPRV-38" value="&lt;font style=&quot;font-size: 20px&quot;&gt;0&lt;/font&gt;" style="rounded=0;whiteSpace=wrap;html=1;" parent="1" vertex="1">
          <mxGeometry x="573" y="610" width="32" height="60" as="geometry"/>
        </mxCell>
        <mxCell id="x2icAH5Dcb5-Hj5fyPRV-39" value="&lt;font style=&quot;font-size: 20px&quot;&gt;0&lt;/font&gt;" style="rounded=0;whiteSpace=wrap;html=1;" parent="1" vertex="1">
          <mxGeometry x="605" y="610" width="32" height="60" as="geometry"/>
        </mxCell>
        <mxCell id="x2icAH5Dcb5-Hj5fyPRV-40" value="&lt;font style=&quot;font-size: 20px&quot;&gt;0&lt;/font&gt;" style="rounded=0;whiteSpace=wrap;html=1;" parent="1" vertex="1">
          <mxGeometry x="637" y="610" width="32" height="60" as="geometry"/>
        </mxCell>
        <mxCell id="x2icAH5Dcb5-Hj5fyPRV-41" value="&lt;font style=&quot;font-size: 20px&quot;&gt;0&lt;/font&gt;" style="rounded=0;whiteSpace=wrap;html=1;" parent="1" vertex="1">
          <mxGeometry x="669" y="610" width="32" height="60" as="geometry"/>
        </mxCell>
        <mxCell id="x2icAH5Dcb5-Hj5fyPRV-42" value="&lt;font style=&quot;font-size: 20px&quot;&gt;0&lt;/font&gt;" style="rounded=0;whiteSpace=wrap;html=1;" parent="1" vertex="1">
          <mxGeometry x="701" y="610" width="32" height="60" as="geometry"/>
        </mxCell>
        <mxCell id="x2icAH5Dcb5-Hj5fyPRV-43" value="&lt;font style=&quot;font-size: 20px&quot;&gt;0&lt;/font&gt;" style="rounded=0;whiteSpace=wrap;html=1;" parent="1" vertex="1">
          <mxGeometry x="733" y="610" width="32" height="60" as="geometry"/>
        </mxCell>
        <mxCell id="x2icAH5Dcb5-Hj5fyPRV-44" value="&lt;font style=&quot;font-size: 20px&quot;&gt;0&lt;/font&gt;" style="rounded=0;whiteSpace=wrap;html=1;" parent="1" vertex="1">
          <mxGeometry x="765" y="610" width="32" height="60" as="geometry"/>
        </mxCell>
        <mxCell id="x2icAH5Dcb5-Hj5fyPRV-45" value="" style="endArrow=classic;html=1;strokeWidth=1;exitX=0.484;exitY=-0.15;exitDx=0;exitDy=0;exitPerimeter=0;entryX=0.5;entryY=1;entryDx=0;entryDy=0;" parent="1" source="x2icAH5Dcb5-Hj5fyPRV-37" target="x2icAH5Dcb5-Hj5fyPRV-38" edge="1">
          <mxGeometry width="50" height="50" relative="1" as="geometry">
            <mxPoint x="225" y="810" as="sourcePoint"/>
            <mxPoint x="275" y="760" as="targetPoint"/>
          </mxGeometry>
        </mxCell>
        <mxCell id="x2icAH5Dcb5-Hj5fyPRV-46" value="&lt;font style=&quot;font-size: 20px&quot;&gt;A&lt;/font&gt;" style="text;html=1;align=center;verticalAlign=middle;resizable=0;points=[];;autosize=1;strokeColor=#000000;" parent="1" vertex="1">
          <mxGeometry x="608.5" y="550" width="25" height="30" as="geometry"/>
        </mxCell>
        <mxCell id="x2icAH5Dcb5-Hj5fyPRV-47" value="" style="endArrow=classic;html=1;strokeWidth=1;" parent="1" edge="1">
          <mxGeometry width="50" height="50" relative="1" as="geometry">
            <mxPoint x="621" y="580" as="sourcePoint"/>
            <mxPoint x="621" y="610" as="targetPoint"/>
          </mxGeometry>
        </mxCell>
        <mxCell id="x2icAH5Dcb5-Hj5fyPRV-48" value="&lt;font style=&quot;font-size: 20px&quot;&gt;B&lt;/font&gt;" style="text;html=1;align=center;verticalAlign=middle;resizable=0;points=[];;autosize=1;strokeColor=#000000;" parent="1" vertex="1">
          <mxGeometry x="638.5" y="550" width="25" height="30" as="geometry"/>
        </mxCell>
        <mxCell id="x2icAH5Dcb5-Hj5fyPRV-49" value="" style="endArrow=classic;html=1;strokeWidth=1;" parent="1" edge="1">
          <mxGeometry width="50" height="50" relative="1" as="geometry">
            <mxPoint x="653" y="580" as="sourcePoint"/>
            <mxPoint x="653" y="610" as="targetPoint"/>
          </mxGeometry>
        </mxCell>
        <mxCell id="x2icAH5Dcb5-Hj5fyPRV-50" value="&lt;font style=&quot;font-size: 20px&quot;&gt;C&lt;/font&gt;" style="text;html=1;align=center;verticalAlign=middle;resizable=0;points=[];;autosize=1;strokeColor=#000000;" parent="1" vertex="1">
          <mxGeometry x="670.5" y="550" width="25" height="30" as="geometry"/>
        </mxCell>
        <mxCell id="x2icAH5Dcb5-Hj5fyPRV-51" value="" style="endArrow=classic;html=1;strokeWidth=1;" parent="1" edge="1">
          <mxGeometry width="50" height="50" relative="1" as="geometry">
            <mxPoint x="685" y="580" as="sourcePoint"/>
            <mxPoint x="685" y="610" as="targetPoint"/>
          </mxGeometry>
        </mxCell>
        <mxCell id="x2icAH5Dcb5-Hj5fyPRV-52" value="&lt;font style=&quot;font-size: 20px&quot;&gt;D&lt;/font&gt;" style="text;html=1;align=center;verticalAlign=middle;resizable=0;points=[];;autosize=1;strokeColor=#000000;" parent="1" vertex="1">
          <mxGeometry x="702.5" y="550" width="25" height="30" as="geometry"/>
        </mxCell>
        <mxCell id="x2icAH5Dcb5-Hj5fyPRV-53" value="" style="endArrow=classic;html=1;strokeWidth=1;" parent="1" edge="1">
          <mxGeometry width="50" height="50" relative="1" as="geometry">
            <mxPoint x="717" y="580" as="sourcePoint"/>
            <mxPoint x="717" y="610" as="targetPoint"/>
          </mxGeometry>
        </mxCell>
        <mxCell id="x2icAH5Dcb5-Hj5fyPRV-54" value="&lt;font style=&quot;font-size: 20px&quot;&gt;E&lt;/font&gt;" style="text;html=1;align=center;verticalAlign=middle;resizable=0;points=[];;autosize=1;strokeColor=#000000;" parent="1" vertex="1">
          <mxGeometry x="734.5" y="550" width="25" height="30" as="geometry"/>
        </mxCell>
        <mxCell id="x2icAH5Dcb5-Hj5fyPRV-55" value="" style="endArrow=classic;html=1;strokeWidth=1;" parent="1" edge="1">
          <mxGeometry width="50" height="50" relative="1" as="geometry">
            <mxPoint x="749" y="580" as="sourcePoint"/>
            <mxPoint x="749" y="610" as="targetPoint"/>
          </mxGeometry>
        </mxCell>
        <mxCell id="x2icAH5Dcb5-Hj5fyPRV-56" value="&lt;font style=&quot;font-size: 20px&quot;&gt;F&lt;/font&gt;" style="text;html=1;align=center;verticalAlign=middle;resizable=0;points=[];;autosize=1;strokeColor=#000000;" parent="1" vertex="1">
          <mxGeometry x="766.5" y="550" width="25" height="30" as="geometry"/>
        </mxCell>
        <mxCell id="x2icAH5Dcb5-Hj5fyPRV-57" value="" style="endArrow=classic;html=1;strokeWidth=1;" parent="1" edge="1">
          <mxGeometry width="50" height="50" relative="1" as="geometry">
            <mxPoint x="781" y="580" as="sourcePoint"/>
            <mxPoint x="781" y="610" as="targetPoint"/>
          </mxGeometry>
        </mxCell>
        <mxCell id="x2icAH5Dcb5-Hj5fyPRV-58" value="" style="rounded=0;whiteSpace=wrap;html=1;" parent="1" vertex="1">
          <mxGeometry x="80" y="110" width="160" height="220" as="geometry"/>
        </mxCell>
        <mxCell id="x2icAH5Dcb5-Hj5fyPRV-59" value="" style="endArrow=none;html=1;dashed=1;" parent="1" edge="1">
          <mxGeometry width="50" height="50" relative="1" as="geometry">
            <mxPoint x="90" y="127" as="sourcePoint"/>
            <mxPoint x="230" y="127" as="targetPoint"/>
          </mxGeometry>
        </mxCell>
        <mxCell id="x2icAH5Dcb5-Hj5fyPRV-60" value="" style="endArrow=none;html=1;dashed=1;" parent="1" edge="1">
          <mxGeometry width="50" height="50" relative="1" as="geometry">
            <mxPoint x="90" y="140" as="sourcePoint"/>
            <mxPoint x="230" y="140" as="targetPoint"/>
          </mxGeometry>
        </mxCell>
        <mxCell id="x2icAH5Dcb5-Hj5fyPRV-61" value="" style="endArrow=none;html=1;dashed=1;" parent="1" source="x2icAH5Dcb5-Hj5fyPRV-71" edge="1">
          <mxGeometry width="50" height="50" relative="1" as="geometry">
            <mxPoint x="90" y="154" as="sourcePoint"/>
            <mxPoint x="230" y="154" as="targetPoint"/>
          </mxGeometry>
        </mxCell>
        <mxCell id="x2icAH5Dcb5-Hj5fyPRV-62" value="" style="endArrow=none;html=1;dashed=1;" parent="1" edge="1">
          <mxGeometry width="50" height="50" relative="1" as="geometry">
            <mxPoint x="90" y="167" as="sourcePoint"/>
            <mxPoint x="230" y="167" as="targetPoint"/>
          </mxGeometry>
        </mxCell>
        <mxCell id="x2icAH5Dcb5-Hj5fyPRV-63" value="" style="endArrow=none;html=1;dashed=1;" parent="1" edge="1">
          <mxGeometry width="50" height="50" relative="1" as="geometry">
            <mxPoint x="90" y="200" as="sourcePoint"/>
            <mxPoint x="230" y="200" as="targetPoint"/>
          </mxGeometry>
        </mxCell>
        <mxCell id="x2icAH5Dcb5-Hj5fyPRV-64" value="" style="endArrow=none;html=1;dashed=1;" parent="1" edge="1">
          <mxGeometry width="50" height="50" relative="1" as="geometry">
            <mxPoint x="90" y="213" as="sourcePoint"/>
            <mxPoint x="230" y="213" as="targetPoint"/>
          </mxGeometry>
        </mxCell>
        <mxCell id="x2icAH5Dcb5-Hj5fyPRV-65" value="" style="endArrow=none;html=1;dashed=1;" parent="1" edge="1">
          <mxGeometry width="50" height="50" relative="1" as="geometry">
            <mxPoint x="90" y="227" as="sourcePoint"/>
            <mxPoint x="230" y="227" as="targetPoint"/>
          </mxGeometry>
        </mxCell>
        <mxCell id="x2icAH5Dcb5-Hj5fyPRV-66" value="" style="endArrow=none;html=1;dashed=1;" parent="1" edge="1">
          <mxGeometry width="50" height="50" relative="1" as="geometry">
            <mxPoint x="90" y="240" as="sourcePoint"/>
            <mxPoint x="230" y="240" as="targetPoint"/>
          </mxGeometry>
        </mxCell>
        <mxCell id="x2icAH5Dcb5-Hj5fyPRV-67" value="" style="endArrow=none;html=1;dashed=1;" parent="1" edge="1">
          <mxGeometry width="50" height="50" relative="1" as="geometry">
            <mxPoint x="90" y="270" as="sourcePoint"/>
            <mxPoint x="230" y="270" as="targetPoint"/>
          </mxGeometry>
        </mxCell>
        <mxCell id="x2icAH5Dcb5-Hj5fyPRV-68" value="" style="endArrow=none;html=1;dashed=1;" parent="1" edge="1">
          <mxGeometry width="50" height="50" relative="1" as="geometry">
            <mxPoint x="90" y="283" as="sourcePoint"/>
            <mxPoint x="230" y="283" as="targetPoint"/>
          </mxGeometry>
        </mxCell>
        <mxCell id="x2icAH5Dcb5-Hj5fyPRV-69" value="" style="endArrow=none;html=1;dashed=1;" parent="1" edge="1">
          <mxGeometry width="50" height="50" relative="1" as="geometry">
            <mxPoint x="90" y="297" as="sourcePoint"/>
            <mxPoint x="230" y="297" as="targetPoint"/>
          </mxGeometry>
        </mxCell>
        <mxCell id="x2icAH5Dcb5-Hj5fyPRV-70" value="" style="endArrow=none;html=1;dashed=1;" parent="1" edge="1">
          <mxGeometry width="50" height="50" relative="1" as="geometry">
            <mxPoint x="90" y="310" as="sourcePoint"/>
            <mxPoint x="230" y="310" as="targetPoint"/>
          </mxGeometry>
        </mxCell>
        <mxCell id="x2icAH5Dcb5-Hj5fyPRV-71" value="&lt;font style=&quot;font-size: 15px&quot;&gt;Lesion A&lt;/font&gt;" style="text;html=1;align=center;verticalAlign=middle;resizable=0;points=[];;autosize=1;strokeColor=#000000;fillColor=#ffffff;" parent="1" vertex="1">
          <mxGeometry x="140" y="146" width="65" height="16" as="geometry"/>
        </mxCell>
        <mxCell id="x2icAH5Dcb5-Hj5fyPRV-72" value="" style="endArrow=none;html=1;dashed=1;" parent="1" target="x2icAH5Dcb5-Hj5fyPRV-71" edge="1">
          <mxGeometry width="50" height="50" relative="1" as="geometry">
            <mxPoint x="90" y="154" as="sourcePoint"/>
            <mxPoint x="230" y="154" as="targetPoint"/>
          </mxGeometry>
        </mxCell>
        <mxCell id="x2icAH5Dcb5-Hj5fyPRV-74" value="&lt;font style=&quot;font-size: 15px&quot;&gt;Lesion D&lt;/font&gt;" style="text;html=1;align=center;verticalAlign=middle;resizable=0;points=[];;autosize=1;strokeColor=#000000;fillColor=#ffffff;" parent="1" vertex="1">
          <mxGeometry x="102" y="191" width="65" height="16" as="geometry"/>
        </mxCell>
        <mxCell id="x2icAH5Dcb5-Hj5fyPRV-75" value="&lt;font style=&quot;font-size: 15px&quot;&gt;Lesion E&lt;/font&gt;" style="text;html=1;align=center;verticalAlign=middle;resizable=0;points=[];;autosize=1;strokeColor=#000000;fillColor=#ffffff;" parent="1" vertex="1">
          <mxGeometry x="140" y="302" width="65" height="16" as="geometry"/>
        </mxCell>
        <mxCell id="x2icAH5Dcb5-Hj5fyPRV-78" value="" style="rounded=0;whiteSpace=wrap;html=1;" parent="1" vertex="1">
          <mxGeometry x="80" y="360" width="160" height="220" as="geometry"/>
        </mxCell>
        <mxCell id="x2icAH5Dcb5-Hj5fyPRV-98" value="" style="endArrow=none;html=1;dashed=1;" parent="1" source="x2icAH5Dcb5-Hj5fyPRV-96" edge="1">
          <mxGeometry width="50" height="50" relative="1" as="geometry">
            <mxPoint x="95" y="379" as="sourcePoint"/>
            <mxPoint x="225" y="379" as="targetPoint"/>
          </mxGeometry>
        </mxCell>
        <mxCell id="x2icAH5Dcb5-Hj5fyPRV-96" value="&lt;font style=&quot;font-size: 15px&quot;&gt;No Lesion&lt;/font&gt;" style="text;html=1;align=center;verticalAlign=middle;resizable=0;points=[];;autosize=1;strokeColor=#000000;fillColor=#ffffff;" parent="1" vertex="1">
          <mxGeometry x="101" y="371" width="80" height="16" as="geometry"/>
        </mxCell>
        <mxCell id="x2icAH5Dcb5-Hj5fyPRV-99" value="" style="endArrow=none;html=1;dashed=1;" parent="1" target="x2icAH5Dcb5-Hj5fyPRV-96" edge="1">
          <mxGeometry width="50" height="50" relative="1" as="geometry">
            <mxPoint x="95" y="379" as="sourcePoint"/>
            <mxPoint x="225" y="379" as="targetPoint"/>
          </mxGeometry>
        </mxCell>
        <mxCell id="Ux-RtUxQKHfNJBztkYY6-1" value="&lt;font style=&quot;font-size: 20px&quot;&gt;Lesion&lt;br&gt;A&lt;/font&gt;" style="rounded=0;whiteSpace=wrap;html=1;strokeColor=#000000;fillColor=#ffffff;" vertex="1" parent="1">
          <mxGeometry x="353" y="190" width="70" height="52" as="geometry"/>
        </mxCell>
        <mxCell id="Ux-RtUxQKHfNJBztkYY6-6" value="&lt;font style=&quot;font-size: 20px&quot;&gt;Lesion&lt;br&gt;B&lt;br&gt;&lt;/font&gt;" style="rounded=0;whiteSpace=wrap;html=1;strokeColor=#000000;fillColor=#ffffff;" vertex="1" parent="1">
          <mxGeometry x="423" y="190" width="70" height="52" as="geometry"/>
        </mxCell>
        <mxCell id="Ux-RtUxQKHfNJBztkYY6-7" value="&lt;font style=&quot;font-size: 20px&quot;&gt;Lesion&lt;br&gt;C&lt;br&gt;&lt;/font&gt;" style="rounded=0;whiteSpace=wrap;html=1;strokeColor=#000000;fillColor=#ffffff;" vertex="1" parent="1">
          <mxGeometry x="493" y="190" width="70" height="52" as="geometry"/>
        </mxCell>
        <mxCell id="Ux-RtUxQKHfNJBztkYY6-8" value="&lt;font style=&quot;font-size: 20px&quot;&gt;Lesion&lt;br&gt;D&lt;br&gt;&lt;/font&gt;" style="rounded=0;whiteSpace=wrap;html=1;strokeColor=#000000;fillColor=#ffffff;" vertex="1" parent="1">
          <mxGeometry x="563" y="190" width="70" height="52" as="geometry"/>
        </mxCell>
        <mxCell id="Ux-RtUxQKHfNJBztkYY6-9" value="&lt;font style=&quot;font-size: 20px&quot;&gt;Lesion&lt;br&gt;E&lt;br&gt;&lt;/font&gt;" style="rounded=0;whiteSpace=wrap;html=1;strokeColor=#000000;fillColor=#ffffff;" vertex="1" parent="1">
          <mxGeometry x="633" y="190" width="70" height="52" as="geometry"/>
        </mxCell>
        <mxCell id="Ux-RtUxQKHfNJBztkYY6-10" value="&lt;font style=&quot;font-size: 20px&quot;&gt;Lesion&lt;br&gt;F&lt;br&gt;&lt;/font&gt;" style="rounded=0;whiteSpace=wrap;html=1;strokeColor=#000000;fillColor=#ffffff;" vertex="1" parent="1">
          <mxGeometry x="703" y="190" width="70" height="52" as="geometry"/>
        </mxCell>
      </root>
    </mxGraphModel>
  </diagram>
</mxfile>
